:SAMPLES-PER-SECOND 30
:FULLY-SPECIFIED
:DEGREES
49
root  63.7546 39.1234 -1.9866 -8.70822 -88.2889 9.13971
RightUpLeg  10.1079 -10.9242 -3.73743
RightLeg  11.3871 -14.3507 2.63389
RightFoot  -17.591 0.0406615 2.93455
RightToes  0.00048216 0.542163 -0.142577
Spine  7.94655 1.05569 9.90358
Spine1  11.3106 3.16045 -5.01139
HEad  14.5597 -3.42478 -3.01331
LeftShoulder1  7.29614 -10.7222 -44.6669
LeftArm  -13.2347 11.5959 -31.0073
LeftForeArm  24.5613 -19.7431 -3.53877
LeftHand  -0.25398 0.0180481 5.50724
RightShoulder  5.50122 9.02332 37.8754
RightArm  2.21977 1.34203 32.4015
RightForeArm  -6.71625 22.2279 5.29975
RightHand  -0.602458 -0.100632 -13.227
LeftUpLeg  -20.5478 5.47214 -3.07507
LeftLeg  5.48213 16.7089 -4.44256
LeftFoot  3.20943 0.103029 -0.99749
LeftToes  1.06248e-005 4.65856e-005 -8.185e-006
50
root  62.4491 38.8678 -2.01393 -22.8563 -88.1988 22.6075
RightUpLeg  12.0175 -14.3862 -5.37674
RightLeg  14.0981 -10.1582 1.27912
RightFoot  -18.8815 0.195186 4.82594
RightToes  0.00048216 0.542163 -0.142577
Spine  7.89743 1.45973 8.75529
Spine1  11.6027 3.66955 -5.21178
HEad  15.0458 -3.74036 -2.14316
LeftShoulder1  7.25935 -10.6772 -44.5788
LeftArm  -13.7655 12.4661 -30.6137
LeftForeArm  24.8025 -14.3935 -3.96123
LeftHand  -0.25398 0.0180481 5.50724
RightShoulder  5.49343 8.91244 38.1927
RightArm  2.84057 1.50223 33.2681
RightForeArm  -5.71454 21.3453 5.34584
RightHand  -0.707373 0.781865 -13.3924
LeftUpLeg  -20.5962 9.18345 -5.72615
LeftLeg  9.40986 14.0527 -2.16118
LeftFoot  3.78896 -0.620318 4.5092
LeftToes  1.06248e-005 4.65856e-005 -8.185e-006
51
root  61.1453 38.6755 -2.02721 -45.584 -87.7619 44.497
RightUpLeg  13.2268 -18.2891 -7.77406
RightLeg  18.3006 -4.54965 -0.659273
RightFoot  -19.1352 0.493865 9.25079
RightToes  0.00048216 0.542163 -0.142577
Spine  8.36264 1.75254 6.64937
Spine1  11.6866 3.91171 -5.15087
HEad  15.4727 -3.93717 -1.17106
LeftShoulder1  7.32954 -10.6751 -45.0346
LeftArm  -14.4554 13.5732 -29.6411
LeftForeArm  25.4246 -10.1006 -4.10167
LeftHand  -0.25398 0.0180481 5.50724
RightShoulder  5.53029 8.80362 38.8539
RightArm  2.60268 1.58083 34.0813
RightForeArm  -3.49829 19.6097 5.59801
RightHand  -0.785324 1.31308 -13.7223
LeftUpLeg  -20.8207 14.0267 -9.17206
LeftLeg  14.2689 8.9726 0.791781
LeftFoot  2.9601 -1.17355 9.2196
LeftToes  1.06248e-005 4.65856e-005 -8.185e-006
52
root  59.8925 38.6174 -2.01636 -56.6212 -86.9439 54.8608
RightUpLeg  11.9629 -17.2343 -8.89835
RightLeg  25.3923 -4.2399 -2.62163
RightFoot  -15.9626 0.45249 14.3227
RightToes  0.00048216 0.542163 -0.142577
Spine  8.93687 1.87065 4.56881
Spine1  11.7815 3.92769 -5.12205
HEad  15.7452 -4.10214 -0.235736
LeftShoulder1  7.47077 -10.783 -45.5773
LeftArm  -14.3726 14.6094 -28.8132
LeftForeArm  25.0386 -7.02333 -3.85263
LeftHand  -0.25398 0.0180481 5.50724
RightShoulder  5.64803 8.84164 39.6304
RightArm  1.72195 1.13162 34.8638
RightForeArm  -1.76351 17.6716 6.10321
RightHand  -0.866531 1.60327 -14.5234
LeftUpLeg  -20.3296 16.4398 -11.0142
LeftLeg  18.0754 6.07981 2.52957
LeftFoot  0.173148 -1.02475 10.0558
LeftToes  1.06248e-005 4.65856e-005 -8.185e-006
53
root  58.6889 38.7211 -1.96394 -62.4329 -86.4796 60.349
RightUpLeg  7.59143 -14.1078 -8.97661
RightLeg  35.7036 -6.19704 -5.02992
RightFoot  -7.83228 -0.464728 14.9161
RightToes  0.00048216 0.542163 -0.142577
Spine  9.44322 1.8956 3.25957
Spine1  11.7138 3.92806 -5.22166
HEad  15.8483 -4.01337 0.202846
LeftShoulder1  7.5336 -10.8704 -45.6852
LeftArm  -14.3305 15.7487 -28.7867
LeftForeArm  24.3611 -5.35935 -3.63504
LeftHand  -0.25398 0.0180481 5.50724
RightShoulder  5.81489 9.05997 40.1373
RightArm  2.18608 -0.199836 35.6068
RightForeArm  -1.69382 16.5704 6.55981
RightHand  -0.901554 1.57009 -15.1664
LeftUpLeg  -18.5446 17.1645 -10.9194
LeftLeg  19.6212 5.71074 2.61065
LeftFoot  -2.75404 -0.639896 8.73701
LeftToes  1.06248e-005 4.65856e-005 -8.185e-006
54
root  57.5598 38.8685 -1.88156 -72.7651 -86.3176 70.6169
RightUpLeg  1.25685 -11.1798 -8.83505
RightLeg  46.4619 -5.8925 -6.86152
RightFoot  1.93556 -1.12925 9.88869
RightToes  0.00048216 0.542163 -0.142577
Spine  10.1163 1.90154 2.12428
Spine1  11.3611 3.84489 -5.2041
HEad  15.7191 -3.38194 -0.0459118
LeftShoulder1  7.47717 -10.8067 -45.5393
LeftArm  -14.4684 17.1097 -29.4181
LeftForeArm  23.9746 -5.37108 -3.58417
LeftHand  -0.25398 0.0180481 5.50724
RightShoulder  5.97067 9.32475 40.3823
RightArm  5.50346 -2.16898 36.0935
RightForeArm  -2.42028 17.0528 6.61547
RightHand  -0.880469 1.41648 -15.1354
LeftUpLeg  -16.3764 19.1247 -10.7937
LeftLeg  19.515 4.69512 2.15813
LeftFoot  -4.65574 -0.43889 8.00623
LeftToes  1.06248e-005 4.65856e-005 -8.185e-006
55
root  56.5068 38.9862 -1.79462 -83.7198 -86.1596 81.5675
RightUpLeg  -5.10408 -8.19723 -8.57672
RightLeg  54.6151 -3.96246 -6.36694
RightFoot  7.27427 -0.791753 4.98335
RightToes  0.00048216 0.542163 -0.142577
Spine  10.9337 1.7867 0.827874
Spine1  11.141 3.45994 -4.89571
HEad  15.2453 -2.34271 -0.55739
LeftShoulder1  7.41337 -10.6617 -45.6146
LeftArm  -14.6202 18.1217 -30.1326
LeftForeArm  24.2067 -6.58945 -3.67687
LeftHand  -0.25398 0.0180481 5.50724
RightShoulder  6.07265 9.46109 40.663
RightArm  10.4414 -4.18233 36.1866
RightForeArm  -2.97798 18.7006 6.18272
RightHand  -0.906643 1.63049 -15.1203
LeftUpLeg  -14.2962 20.1066 -10.4336
LeftLeg  19.2745 4.47794 1.76739
LeftFoot  -6.17232 -0.30921 7.64832
LeftToes  1.06248e-005 4.65856e-005 -8.185e-006
56
root  55.4724 39.1585 -1.71372 -88.3308 -86.297 86.1564
RightUpLeg  -10.4689 -5.80447 -8.03874
RightLeg  58.9573 -2.44342 -4.887
RightFoot  7.0487 -0.61911 4.14062
RightToes  0.00048216 0.542163 -0.142577
Spine  11.6279 1.43587 -0.0177961
Spine1  11.4096 2.80239 -4.36896
HEad  14.511 -1.34037 -0.853001
LeftShoulder1  7.41372 -10.5783 -45.8948
LeftArm  -14.7369 18.0806 -30.7697
LeftForeArm  25.0048 -7.94506 -3.81455
LeftHand  -0.25398 0.0180481 5.50724
RightShoulder  6.08619 9.39322 40.9939
RightArm  14.311 -6.10345 36.1085
RightForeArm  -3.99418 20.4009 5.67567
RightHand  -1.0212 2.11742 -15.9344
LeftUpLeg  -11.8635 19.0661 -9.29852
LeftLeg  18.6347 5.70455 1.38071
LeftFoot  -7.62222 -0.16835 6.57871
LeftToes  1.06248e-005 4.65856e-005 -8.185e-006
57
root  54.4391 39.3602 -1.64352 -88.9608 -86.9099 86.7807
RightUpLeg  -14.9098 -4.09232 -7.12386
RightLeg  59.4397 -2.02386 -4.19804
RightFoot  4.50647 -0.754038 5.63582
RightToes  0.00048216 0.542163 -0.142577
Spine  12.2895 0.99984 -0.323663
Spine1  11.821 2.05825 -3.63926
HEad  13.7674 -0.522822 -0.958726
LeftShoulder1  7.43123 -10.5657 -46.0491
LeftArm  -14.8053 17.0493 -31.5238
LeftForeArm  25.9245 -8.84098 -3.93219
LeftHand  -0.25398 0.0180481 5.50724
RightShoulder  6.00596 9.19294 41.0986
RightArm  16.2046 -8.36206 36.0908
RightForeArm  -6.30934 21.7204 5.45108
RightHand  -1.1105 2.23754 -17.0469
LeftUpLeg  -9.18038 16.9319 -7.55148
LeftLeg  17.536 7.81278 0.768462
LeftFoot  -8.85456 -0.0632923 5.39775
LeftToes  1.06248e-005 4.65856e-005 -8.185e-006
58
root  53.4078 39.5215 -1.59139 -89.2337 -87.6359 87.058
RightUpLeg  -18.6372 -2.80607 -5.99797
RightLeg  56.7225 -2.44865 -4.44374
RightFoot  2.3998 -0.686156 5.80037
RightToes  0.00048216 0.542163 -0.142577
Spine  13.2353 0.61039 -0.812523
Spine1  11.8248 1.21449 -2.53989
HEad  13.078 0.460225 -1.13965
LeftShoulder1  7.42374 -10.5552 -46.0364
LeftArm  -14.8137 15.6392 -32.3414
LeftForeArm  26.5052 -9.57559 -4.02647
LeftHand  -0.25398 0.0180481 5.50724
RightShoulder  5.89676 9.01143 40.9234
RightArm  16.9826 -11.1164 36.0099
RightForeArm  -8.74672 22.8804 5.44634
RightHand  -1.07668 1.82577 -17.4249
LeftUpLeg  -6.51751 13.8552 -5.72601
LeftLeg  16.2623 10.8525 -0.0925635
LeftFoot  -9.88996 0.000678005 4.65703
LeftToes  1.06248e-005 4.65856e-005 -8.185e-006
59
root  52.3694 39.6334 -1.55766 -85.379 -88.1992 83.2058
RightUpLeg  -21.5061 -2.00167 -4.89656
RightLeg  51.3164 -3.12016 -4.54445
RightFoot  1.15837 -0.47176 4.38078
RightToes  0.00048216 0.542163 -0.142577
Spine  14.4331 0.140323 -1.76275
Spine1  11.506 0.136444 -1.08373
HEad  12.1775 1.66731 -1.3003
LeftShoulder1  7.41804 -10.5555 -45.9991
LeftArm  -14.7812 14.1442 -32.9158
LeftForeArm  26.6388 -10.6001 -4.08739
LeftHand  -0.25398 0.0180481 5.50724
RightShoulder  5.84528 8.95134 40.7484
RightArm  17.3619 -13.9283 35.7045
RightForeArm  -9.27427 23.8412 5.54945
RightHand  -0.993776 1.41422 -17.0428
LeftUpLeg  -4.00934 10.7555 -4.36173
LeftLeg  14.9827 13.6217 -0.891621
LeftFoot  -10.9965 0.0541708 3.79866
LeftToes  1.06248e-005 4.65856e-005 -8.185e-006
60
root  51.3043 39.671 -1.54724 -72.9956 -88.4407 70.8876
RightUpLeg  -23.4313 -1.89435 -4.0493
RightLeg  43.7106 -3.41456 -3.80119
RightFoot  0.228665 -0.425936 4.23109
RightToes  0.00048216 0.542163 -0.142577
Spine  15.5119 -0.439541 -3.03148
Spine1  11.3732 -1.07818 0.350573
HEad  10.8717 2.95476 -1.28184
LeftShoulder1  7.45629 -10.6393 -45.962
LeftArm  -14.7153 12.3323 -33.0596
LeftForeArm  26.5981 -11.8024 -4.0783
LeftHand  -0.25398 0.0180481 5.50724
RightShoulder  5.85628 8.98429 40.7146
RightArm  17.5537 -16.4956 35.3677
RightForeArm  -8.12032 24.4002 5.62627
RightHand  -0.960357 1.29305 -16.7671
LeftUpLeg  -1.84063 8.87316 -3.58075
LeftLeg  14.2078 14.9079 -1.40645
LeftFoot  -12.3798 0.0998783 2.79317
LeftToes  1.06248e-005 4.65856e-005 -8.185e-006
61
root  50.1741 39.6087 -1.55585 -64.8676 -88.3268 62.9637
RightUpLeg  -24.6783 -2.59415 -3.35636
RightLeg  34.8462 -3.22535 -2.66217
RightFoot  -0.617438 -0.529356 5.58955
RightToes  0.00048216 0.542163 -0.142577
Spine  16.2143 -0.907884 -4.43449
Spine1  11.563 -2.09876 1.51584
HEad  9.21249 4.06723 -1.2346
LeftShoulder1  7.57738 -10.854 -46.0131
LeftArm  -14.6429 9.94798 -32.702
LeftForeArm  26.7441 -12.7274 -4.02956
LeftHand  -0.25398 0.0180481 5.50724
RightShoulder  5.86463 9.02155 40.646
RightArm  17.5381 -19.0891 35.2629
RightForeArm  -7.1714 24.7113 5.65115
RightHand  -0.957107 1.15482 -17.0481
LeftUpLeg  -0.00458145 7.82783 -3.306
LeftLeg  14.0498 15.5189 -1.66092
LeftFoot  -14.0036 0.13565 2.19288
LeftToes  1.06248e-005 4.65856e-005 -8.185e-006
62
root  48.9628 39.4738 -1.56283 -74.3161 -88.0067 72.7557
RightUpLeg  -25.6204 -4.46265 -2.3194
RightLeg  25.8098 -2.68245 -1.66286
RightFoot  -1.12758 -0.58202 6.41411
RightToes  0.00048216 0.542163 -0.142577
Spine  16.6514 -1.08485 -5.78352
Spine1  11.8022 -2.71524 2.45267
HEad  7.32167 4.9695 -1.40129
LeftShoulder1  7.81181 -11.1872 -46.3729
LeftArm  -14.5163 7.06268 -31.7874
LeftForeArm  26.9702 -13.2291 -4.01817
LeftHand  -0.25398 0.0180481 5.50724
RightShoulder  5.84716 9.04412 40.4354
RightArm  17.4843 -22.0297 35.3631
RightForeArm  -7.5088 25.0215 5.73825
RightHand  -0.949581 0.912931 -17.5326
LeftUpLeg  1.86378 6.6983 -3.5827
LeftLeg  13.7321 16.6146 -1.8206
LeftFoot  -15.7398 0.155219 1.60125
LeftToes  1.06248e-005 4.65856e-005 -8.185e-006
63
root  47.6812 39.2893 -1.55713 -91.5229 -87.363 90.3702
RightUpLeg  -26.5064 -8.00997 -0.523425
RightLeg  17.6401 -1.80467 -0.737528
RightFoot  -1.0769 -0.593649 6.51778
RightToes  0.00048216 0.542163 -0.142577
Spine  17.0582 -1.06129 -6.92983
Spine1  11.8748 -3.01039 3.11301
HEad  5.31873 5.75281 -1.7159
LeftShoulder1  8.11936 -11.5732 -46.983
LeftArm  -14.3042 3.99534 -30.5325
LeftForeArm  26.8576 -13.6683 -4.04933
LeftHand  -0.25398 0.0180481 5.50724
RightShoulder  5.85136 9.11021 40.2362
RightArm  17.7945 -25.2662 35.5229
RightForeArm  -8.82598 25.3253 5.87216
RightHand  -0.950215 0.805393 -17.8349
LeftUpLeg  4.02129 5.60056 -4.31391
LeftLeg  12.8703 17.9753 -2.09875
LeftFoot  -17.5197 0.126565 0.409774
LeftToes  1.06248e-005 4.65856e-005 -8.185e-006
